<svg width="170" height="170" viewBox="0 0 170 170" fill="none" xmlns="http://www.w3.org/2000/svg">
<g opacity="0.5">
<path opacity="0.5" d="M85 170C131.944 170 170 131.944 170 85C170 38.0558 131.944 0 85 0C38.0558 0 0 38.0558 0 85C0 131.944 38.0558 170 85 170Z" fill="url(#paint0_linear)"/>
</g>
<path d="M85.1657 167.664C131.12 167.664 168.373 130.411 168.373 84.4569C168.373 38.5027 131.12 1.24942 85.1657 1.24942C39.2115 1.24942 1.95825 38.5027 1.95825 84.4569C1.95825 130.411 39.2115 167.664 85.1657 167.664Z" fill="#F5F5F5"/>
<path d="M85.2438 167.993C101.503 168.02 117.409 163.259 130.981 154.305C127.914 137.549 116.246 136.594 116.246 136.594H51.899C51.899 136.594 40.8879 137.498 37.449 152.912C51.4409 162.754 68.1371 168.023 85.2438 167.993V167.993Z" fill="#F27121"/>
<path d="M84.3594 122.865C106.54 122.865 124.521 104.884 124.521 82.7033C124.521 60.5225 106.54 42.5414 84.3594 42.5414C62.1786 42.5414 44.1975 60.5225 44.1975 82.7033C44.1975 104.884 62.1786 122.865 84.3594 122.865Z" fill="#333333"/>
<path opacity="0.1" d="M71.3976 116.155H97.1314V136.743C97.1314 140.155 95.7765 143.427 93.3645 145.839C90.9525 148.252 87.681 149.608 84.2694 149.61V149.61C80.8568 149.61 77.5841 148.254 75.1711 145.841C72.7581 143.428 71.4025 140.155 71.4025 136.743V116.155H71.3976Z" fill="black"/>
<path d="M72.2135 115.201H96.3252C96.5416 115.201 96.7492 115.287 96.9022 115.44C97.0552 115.593 97.1411 115.8 97.1411 116.016V135.788C97.1415 137.478 96.8087 139.152 96.1619 140.714C95.5152 142.276 94.567 143.695 93.3717 144.89C92.1763 146.085 90.7572 147.033 89.1954 147.679C87.6336 148.326 85.9597 148.658 84.2694 148.657V148.657C80.8569 148.657 77.5841 147.302 75.1711 144.889C72.7581 142.476 71.4025 139.203 71.4025 135.791V116.016C71.4025 115.801 71.4877 115.594 71.6397 115.441C71.7917 115.288 71.9979 115.202 72.2135 115.201V115.201Z" fill="#FDB797"/>
<path opacity="0.1" d="M71.4438 125.873C79.7376 128.972 88.867 128.997 97.1777 125.944V122.778H71.4438V125.873Z" fill="black"/>
<path d="M84.3595 127.595C104.731 127.595 121.246 111.081 121.246 90.7089C121.246 70.3372 104.731 53.8228 84.3595 53.8228C63.9879 53.8228 47.4734 70.3372 47.4734 90.7089C47.4734 111.081 63.9879 127.595 84.3595 127.595Z" fill="#FDB797"/>
<path opacity="0.1" d="M58.085 57.157C58.085 57.157 73.631 88.7117 117.483 70.3868L107.273 54.378L89.1745 47.8825L58.085 57.157Z" fill="black"/>
<path d="M58.085 56.6943C58.085 56.6943 73.631 88.249 117.483 69.9192L107.273 53.9105L89.1745 47.4149L58.085 56.6943Z" fill="#333333"/>
<path d="M57.9485 54.5559C58.9967 51.3111 60.8083 48.3652 63.2312 45.9658C70.4866 38.7931 82.3817 37.2807 88.4827 29.1021C89.944 31.3721 88.814 34.8622 86.2908 35.8364C92.136 35.7974 98.9092 35.286 102.214 30.4782C103.031 32.3797 103.291 34.474 102.965 36.5175C102.639 38.5611 101.739 40.4701 100.371 42.0226C105.551 42.2662 111.087 45.7733 111.413 50.9488C111.637 54.3976 109.465 57.6612 106.642 59.6388C103.819 61.6165 100.38 62.5249 97.0071 63.2678C87.1578 65.4427 51.5211 74.5443 57.9485 54.5559Z" fill="#333333"/>
<path d="M47.4588 97.1095C49.354 97.1095 50.8904 94.2286 50.8904 90.6748C50.8904 87.121 49.354 84.2401 47.4588 84.2401C45.5635 84.2401 44.0271 87.121 44.0271 90.6748C44.0271 94.2286 45.5635 97.1095 47.4588 97.1095Z" fill="#FDB797"/>
<path d="M121.241 97.1095C123.136 97.1095 124.672 94.2286 124.672 90.6748C124.672 87.121 123.136 84.2401 121.241 84.2401C119.345 84.2401 117.809 87.121 117.809 90.6748C117.809 94.2286 119.345 97.1095 121.241 97.1095Z" fill="#FDB797"/>
<defs>
<linearGradient id="paint0_linear" x1="85" y1="170" x2="85" y2="0" gradientUnits="userSpaceOnUse">
<stop stop-color="#808080" stop-opacity="0.25"/>
<stop offset="0.54" stop-color="#808080" stop-opacity="0.12"/>
<stop offset="1" stop-color="#808080" stop-opacity="0.1"/>
</linearGradient>
</defs>
</svg>
