<svg width="350" height="275" viewBox="0 0 350 275" fill="none" xmlns="http://www.w3.org/2000/svg">
<path d="M202.488 127.069C198.744 112.156 183.62 103.101 168.706 106.844C157.052 109.77 148.589 119.843 147.717 131.827C139.442 133.192 133.84 141.006 135.205 149.282C136.418 156.638 142.792 162.026 150.248 161.996H162.903V156.934H150.248C144.657 156.934 140.124 152.402 140.124 146.811C140.124 141.219 144.657 136.687 150.248 136.687C151.646 136.687 152.779 135.554 152.779 134.156C152.767 121.575 162.955 111.367 175.535 111.354C186.425 111.343 195.8 119.042 197.907 129.726C198.115 130.793 198.98 131.608 200.058 131.751C206.977 132.737 211.788 139.145 210.802 146.064C209.918 152.277 204.613 156.903 198.337 156.934H188.213V161.996H198.337C208.122 161.967 216.03 154.011 216 144.226C215.975 136.081 210.4 129.002 202.488 127.069Z" fill="#E94057"/>
<path d="M173.761 137.421L163.637 147.545L167.205 151.113L173.027 145.317V169.589H178.089V145.317L183.885 151.113L187.453 147.545L177.329 137.421C176.342 136.439 174.748 136.439 173.761 137.421Z" fill="#E94057"/>
</svg>
