<svg width="589" height="488" viewBox="0 0 589 488" fill="none" xmlns="http://www.w3.org/2000/svg">
<g clip-path="url(#clip0)">
<path d="M420.785 110.48H416.599C415.774 110.48 415.105 111.148 415.105 111.972V168.023C415.105 168.847 415.774 169.515 416.599 169.515H420.785C421.61 169.515 422.279 168.847 422.279 168.023V111.972C422.279 111.148 421.61 110.48 420.785 110.48Z" fill="#3F3D56"/>
<path d="M393.531 0H204.414C190.361 0 178.97 11.3742 178.97 25.4049V461.618C178.97 475.648 190.361 487.023 204.414 487.023H393.531C407.584 487.023 418.975 475.648 418.975 461.618V25.4049C418.975 11.3742 407.584 0 393.531 0Z" fill="#3F3D56"/>
<path d="M385.57 12.6855H358.039V15.9922C358.039 18.0505 357.633 20.0887 356.844 21.9902C356.055 23.8918 354.898 25.6194 353.44 27.0745C351.982 28.5295 350.251 29.6835 348.346 30.4704C346.441 31.2573 344.399 31.6617 342.338 31.6606H254.781C252.72 31.6617 250.678 31.2573 248.773 30.4704C246.869 29.6835 245.138 28.5295 243.68 27.0745C242.221 25.6194 241.065 23.8918 240.276 21.9902C239.486 20.0887 239.08 18.0505 239.08 15.9922V12.6855H213.303C208.248 12.6855 203.4 14.6906 199.825 18.2598C196.25 21.8289 194.242 26.6698 194.242 31.7173V455.339C194.242 460.386 196.25 465.227 199.825 468.796C203.4 472.365 208.248 474.37 213.303 474.37H385.57C390.626 474.37 395.474 472.365 399.049 468.796C402.623 465.227 404.631 460.386 404.631 455.339V31.7499C404.636 29.2479 404.146 26.7695 403.19 24.4567C402.234 22.1439 400.831 20.042 399.06 18.2713C397.29 16.5006 395.187 15.0958 392.872 14.1373C390.557 13.1788 388.076 12.6855 385.57 12.6855Z" fill="white"/>
<path d="M306.811 14.5444H278.348C276.953 14.5444 275.822 15.6734 275.822 17.066V18.8142C275.822 20.2068 276.953 21.3358 278.348 21.3358H306.811C308.206 21.3358 309.337 20.2068 309.337 18.8142V17.066C309.337 15.6734 308.206 14.5444 306.811 14.5444Z" fill="#E6E8EC"/>
<path d="M318.269 21.7971C320.402 21.7971 322.131 20.0705 322.131 17.9405C322.131 15.8105 320.402 14.0838 318.269 14.0838C316.135 14.0838 314.406 15.8105 314.406 17.9405C314.406 20.0705 316.135 21.7971 318.269 21.7971Z" fill="#E6E8EC"/>
<path d="M300.438 294.822C325.513 294.822 345.84 274.527 345.84 249.49C345.84 224.454 325.513 204.158 300.438 204.158C275.363 204.158 255.036 224.454 255.036 249.49C255.036 274.527 275.363 294.822 300.438 294.822Z" fill="white"/>
<path d="M360.155 243.16C360.154 255.144 356.595 266.858 349.927 276.821C343.259 286.784 333.781 294.55 322.693 299.135C311.605 303.721 299.404 304.92 287.633 302.582C275.862 300.244 265.049 294.473 256.563 285.999C248.077 277.526 242.298 266.73 239.957 254.977C237.616 243.224 238.818 231.042 243.411 219.971C248.004 208.9 255.782 199.438 265.762 192.78C275.741 186.123 287.473 182.57 299.475 182.57C307.444 182.571 315.335 184.138 322.697 187.183C330.059 190.228 336.748 194.691 342.383 200.318C348.017 205.944 352.487 212.623 355.536 219.974C358.586 227.325 360.155 235.204 360.155 243.16ZM292.46 275.231L337.474 230.287C337.838 229.925 338.127 229.494 338.324 229.019C338.521 228.545 338.623 228.036 338.623 227.522C338.623 227.009 338.521 226.5 338.324 226.025C338.127 225.551 337.838 225.12 337.474 224.757L331.935 219.268C331.572 218.904 331.141 218.616 330.667 218.419C330.192 218.222 329.684 218.121 329.17 218.121C328.656 218.121 328.147 218.222 327.673 218.419C327.198 218.616 326.767 218.904 326.404 219.268L289.691 255.925L272.549 238.769C271.814 238.038 270.818 237.628 269.78 237.628C268.742 237.628 267.747 238.038 267.011 238.769L261.472 244.331C260.741 245.066 260.33 246.06 260.33 247.096C260.33 248.132 260.741 249.126 261.472 249.861L286.923 275.263C287.286 275.627 287.718 275.916 288.193 276.113C288.668 276.31 289.178 276.411 289.692 276.411C290.207 276.411 290.716 276.31 291.192 276.113C291.667 275.916 292.098 275.627 292.462 275.263L292.46 275.231Z" fill="#42B883"/>
<path d="M186.484 96.014H185.856C185.03 96.014 184.361 96.6821 184.361 97.5061V111.993C184.361 112.817 185.03 113.485 185.856 113.485H186.484C187.309 113.485 187.978 112.817 187.978 111.993V97.5061C187.978 96.6821 187.309 96.014 186.484 96.014Z" fill="#3F3D56"/>
<path d="M186.812 128.004H185.724C184.899 128.004 184.23 128.672 184.23 129.497V156.919C184.23 157.743 184.899 158.411 185.724 158.411H186.812C187.637 158.411 188.306 157.743 188.306 156.919V129.497C188.306 128.672 187.637 128.004 186.812 128.004Z" fill="#3F3D56"/>
<path d="M186.68 169.05H185.79C184.964 169.05 184.295 169.718 184.295 170.542V198.226C184.295 199.05 184.964 199.718 185.79 199.718H186.68C187.506 199.718 188.175 199.05 188.175 198.226V170.542C188.175 169.718 187.506 169.05 186.68 169.05Z" fill="#3F3D56"/>
<path d="M136.221 250.146C136.325 250.246 136.458 250.31 136.601 250.328C136.744 250.346 136.889 250.318 137.014 250.248C136.746 250.252 136.479 250.217 136.221 250.146Z" fill="url(#paint0_linear)"/>
<path d="M166.216 261.861L165.432 266.119L164.828 269.377L163.729 275.336L153.073 282.785C153.073 282.785 152.113 281.964 150.528 280.67C146.161 277.08 136.982 269.769 130.243 265.845C128.509 264.742 126.633 263.879 124.667 263.28L166.216 261.861Z" fill="#FEB9B9"/>
<path d="M158.398 265.029C158.398 265.029 170.823 267.159 171.55 261.861C172.278 256.563 165.155 253.7 159.119 253.343C153.082 252.987 116.852 255.473 116.852 255.473C116.852 255.473 110.461 263.983 133.542 265.407L158.398 265.029Z" fill="#3F3D56"/>
<path d="M185.569 90.2072H120.572V167.161H185.569V90.2072Z" fill="#2F2E41"/>
<path opacity="0.1" d="M185.569 90.5565H120.572V167.51H185.569V90.5565Z" fill="black"/>
<path d="M44.3952 221.941C43.325 222.21 41.9572 223.244 40.436 224.739C33.8854 231.214 24.5032 246.41 24.5032 246.41C12.508 232.144 25.7816 220.873 31.4395 216.999C32.8151 216.061 33.7392 215.545 33.7392 215.545L44.3952 221.941Z" fill="#FEB9B9"/>
<path d="M165.502 114.495C165.502 114.495 168.7 136.835 179.71 142.154C190.719 147.473 165.502 157.415 165.502 157.415L131.053 144.639C131.053 144.639 150.589 138.254 146.68 119.458L165.502 114.495Z" fill="#FEB9B9"/>
<path d="M128.564 248.896L127.785 253.14L127.152 256.41L126.053 262.369L115.397 269.811C115.397 269.811 114.436 268.997 112.852 267.704C108.485 264.114 99.3068 256.803 92.5565 252.879C90.8237 251.774 88.9478 250.911 86.9808 250.313L128.564 248.896Z" fill="#FEB9B9"/>
<path d="M119.346 254.13C119.346 254.13 130.497 254.209 131.168 248.896C131.839 243.583 125.091 240.735 119.346 240.378C113.602 240.022 78.6976 242.673 78.6976 242.673C78.6976 242.673 73.7458 252.707 95.7007 254.129L119.346 254.13Z" fill="#2F2E41"/>
<path d="M197.528 337.593C197.04 337.353 196.552 337.106 196.072 336.867L194.761 335.217L177.577 313.459V313.837C177.461 317.471 176.223 346.264 166.572 348.923C156.273 351.758 143.848 352.47 138.184 333.321C132.521 314.172 122.172 272.326 111.545 269.841L127.354 256.898C127.354 256.898 137.82 269.122 142.085 280.822C141.925 280.096 134.697 246.375 140.629 240.409H192.493C192.493 240.409 200.5 263.177 205.987 274.456C210.26 283.213 216.672 303.918 220.801 317.929C224.888 331.765 210.527 343.981 197.528 337.593Z" fill="#3F3D56"/>
<path opacity="0.1" d="M196.05 246.766C188.044 251.497 152.896 249.571 141.461 248.801L138.346 248.576C138.011 248.576 138.397 248.387 138.397 248.387L138.717 245.167L147.24 223.54L192.877 197.116C191.952 199.899 191.647 204.158 191.72 209.034C191.931 224.703 196.05 246.766 196.05 246.766Z" fill="black"/>
<path d="M196.05 245.698C188.044 250.429 152.896 248.503 141.461 247.733L138.346 247.515L137.829 247.471L138.396 247.326L141.206 246.599L147.24 222.487L192.876 196.07C191.952 198.853 191.646 203.112 191.719 207.988C191.93 223.642 196.05 245.698 196.05 245.698Z" fill="#EFEFEF"/>
<path opacity="0.1" d="M191.69 207.973C182.41 210.11 161.987 216.379 154.14 231.519C148.907 241.599 144.503 245.923 141.432 247.733L138.316 247.514C138.337 247.452 138.354 247.389 138.367 247.325L141.177 246.599L147.21 222.486L192.847 196.07C191.933 198.838 191.617 203.097 191.69 207.973Z" fill="black"/>
<path opacity="0.1" d="M33.7391 215.561L44.3952 221.942C43.3249 222.211 41.9571 223.245 40.436 224.74C39.5478 222.152 33.9754 218.541 31.4395 217C32.8144 216.077 33.7391 215.561 33.7391 215.561Z" fill="black"/>
<path opacity="0.1" d="M136.417 247.929C136.3 247.99 136.168 248.013 136.037 247.995C135.907 247.976 135.785 247.918 135.69 247.828C135.926 247.897 136.171 247.931 136.417 247.929Z" fill="black"/>
<path d="M160.531 140.737C160.531 140.737 150.938 141.798 144.191 134.705C144.191 134.705 115.804 142.866 106.19 161.303C96.5764 179.74 31.2208 215.917 31.2208 215.917C31.2208 215.917 42.5901 222.298 41.5199 225.488L84.4997 200.663C84.4997 200.663 99.7845 189.675 104.028 187.189C108.272 184.704 131.738 169.458 136.709 210.947C141.68 252.436 136.709 247.472 136.709 247.472C136.709 247.472 143.813 249.958 154.112 230.096C164.411 210.234 196.371 205.626 196.371 205.626L198.147 184.711C198.147 184.711 204.487 170.845 199.603 165.089C198.123 163.385 197.139 161.309 196.757 159.086C195.949 153.774 196.757 144.923 208.068 137.568C225.471 126.216 232.218 117.002 232.218 117.002C232.218 117.002 232.574 110.258 221.919 107.067C211.263 103.877 167.934 86.501 167.934 86.501L166.478 92.5327L200.665 116.624C200.665 116.624 183.619 130.431 170.096 130.097C170.095 130.097 172.606 140.38 160.531 140.737Z" fill="#42B883"/>
<path opacity="0.1" d="M167.111 124.218C166.271 121.375 165.615 118.482 165.146 115.555L146.323 120.52C147.153 124.108 147.005 127.852 145.894 131.363C149.742 132.389 153.808 132.257 157.582 130.987C161.356 129.716 164.671 127.361 167.111 124.218Z" fill="black"/>
<path d="M151.477 130.985C162.656 130.985 171.719 121.936 171.719 110.774C171.719 99.6122 162.656 90.5636 151.477 90.5636C140.298 90.5636 131.235 99.6122 131.235 110.774C131.235 121.936 140.298 130.985 151.477 130.985Z" fill="#FEB9B9"/>
<path opacity="0.1" d="M173.494 273.539C173.494 273.539 185.213 296.591 181.661 303.676L173.494 273.539Z" fill="black"/>
<path d="M162.241 64.096C167.86 64.7359 173.195 67.1408 178.727 68.4564C180.11 68.8855 181.582 68.9405 182.993 68.616C185.14 67.9546 186.887 65.7093 189.114 65.7745C190.484 65.8181 191.698 66.7486 192.826 67.6419C194.635 69.0245 196.338 70.5404 197.921 72.1769C201.734 76.3117 204.1 81.8788 207.579 86.3773C211.058 90.8757 216.019 96.1509 220.961 94.088C217.599 107.169 207.113 115.352 195.199 116.167C190.446 116.492 185.576 115.505 180.976 116.893C179.83 117.362 178.62 117.656 177.387 117.765C174.738 117.765 172.605 115.338 170.953 112.976C167.08 107.424 164.016 101.123 159.656 96.0577C158.2 94.3792 156.519 92.7875 154.481 92.4825C152.443 92.1776 150.573 93.151 148.761 94.0886C145.769 95.6368 142.713 97.2351 140.391 99.9026C138.069 102.57 136.606 106.508 137.566 110.077C138.083 112.01 139.263 113.754 139.284 115.774C139.328 119.001 136.475 121.356 135.914 124.495C135.787 125.814 135.741 127.139 135.776 128.463C135.528 132.764 132.709 136.282 129.772 138.993C128.622 140.04 127.357 141.173 127.021 142.794C126.795 143.905 127.021 145.074 126.875 146.202C126.446 148.993 123.658 150.41 121.19 150.774C118.308 151.2 115.363 150.851 112.66 149.764C116.11 148.135 118.236 143.5 117.435 139.35C116.336 133.594 110.542 129.459 111.04 123.602C111.312 121.805 111.852 120.058 112.641 118.42C113.904 115.255 114.821 111.964 115.378 108.602C115.814 106.008 116.026 103.254 115.21 100.776C114.483 98.5226 112.961 96.7282 111.673 94.8236C109.926 92.2327 108.547 89.4128 107.575 86.4444C107.223 85.5638 107.088 84.6114 107.183 83.668C107.475 82.5538 108.097 81.5533 108.967 80.7972C112.133 77.4742 115.518 74.0241 119.761 73.0721C121.786 72.7364 123.845 72.6583 125.89 72.8395C129.445 72.9509 133.004 72.8001 136.538 72.3886C139.449 72.0472 144.369 72.0908 146.837 70.2084C149.137 68.4492 150.433 66.2404 153.264 65.1216C156.131 64.0606 159.212 63.7089 162.245 64.0967L162.241 64.096Z" fill="#2F2E41"/>
</g>
<defs>
<linearGradient id="paint0_linear" x1="136.622" y1="250.335" x2="136.622" y2="250.146" gradientUnits="userSpaceOnUse">
<stop stop-color="#808080" stop-opacity="0.251"/>
<stop offset="0.54" stop-color="#808080" stop-opacity="0.122"/>
<stop offset="1" stop-color="#808080" stop-opacity="0.102"/>
</linearGradient>
<clipPath id="clip0">
<rect width="589" height="488" fill="white"/>
</clipPath>
</defs>
</svg>
